<svg width="22" height="18" viewBox="0 0 22 18" fill="none" xmlns="http://www.w3.org/2000/svg">
<path d="M21.5482 2.04114C20.7399 2.3921 19.8847 2.62332 19.0096 2.7275C19.9292 2.18935 20.6209 1.3344 20.9547 0.323C20.0852 0.83108 19.1355 1.18757 18.1463 1.37721C17.7297 0.94096 17.2287 0.593911 16.6738 0.357158C16.1188 0.120405 15.5215 -0.00110684 14.9181 7.59678e-06C12.4751 7.59678e-06 10.498 1.94693 10.498 4.34694C10.4963 4.68077 10.5346 5.01361 10.612 5.33835C8.86021 5.25628 7.14481 4.80971 5.57559 4.02721C4.00637 3.2447 2.61788 2.14349 1.49895 0.79403C1.1064 1.45532 0.898799 2.20983 0.897842 2.97871C0.897842 4.48601 1.6848 5.81835 2.87309 6.59892C2.16906 6.58222 1.47946 6.39601 0.862826 6.05611V6.10994C0.862826 8.21836 2.38916 9.97239 4.4093 10.3716C4.02942 10.4728 3.63795 10.5241 3.2448 10.5242C2.96583 10.5247 2.6875 10.4976 2.41385 10.4434C2.97545 12.1705 4.60997 13.4266 6.54617 13.4625C4.97287 14.6741 3.04127 15.329 1.05496 15.3242C0.70239 15.3237 0.350143 15.3027 0 15.2614C2.02067 16.5508 4.36955 17.2328 6.76703 17.2263C14.9087 17.2263 19.3566 10.6004 19.3566 4.85386C19.3566 4.66545 19.3516 4.47704 19.3427 4.29311C20.206 3.67945 20.9528 2.91686 21.5482 2.04114Z" fill="#1C1F35"/>
</svg>
