<svg width="24" height="22" viewBox="0 0 24 22" fill="none" xmlns="http://www.w3.org/2000/svg">
<path fill-rule="evenodd" clip-rule="evenodd" d="M23.0826 10.8103C23.0826 4.8405 17.9148 0 11.5413 0C5.16783 0 0 4.8405 0 10.8103C0 16.2058 4.2198 20.678 9.73799 21.4898L9.73799 13.9361L6.8068 13.9361L6.8068 10.8103L9.73799 10.8103L9.73799 8.42864C9.73799 5.71979 11.4615 4.22228 14.0974 4.22228C15.3603 4.22228 16.6813 4.43366 16.6813 4.43366L16.6813 7.09424L15.2253 7.09424C13.7924 7.09424 13.3441 7.92722 13.3441 8.78335L13.3441 10.8103L16.5448 10.8103L16.0337 13.9361L13.3447 13.9361L13.3447 21.4907C18.8628 20.6795 23.0826 16.2072 23.0826 10.8103Z" fill="#1C1F35"/>
</svg>
