<svg width="23" height="22" viewBox="0 0 23 22" fill="none" xmlns="http://www.w3.org/2000/svg">
<path d="M15.8227 1.79113C17.0559 1.79467 18.2375 2.26765 19.1096 3.10677C19.9816 3.94589 20.4731 5.08297 20.4768 6.26966L20.4768 15.2258C20.4731 16.4125 19.9816 17.5495 19.1096 18.3887C18.2375 19.2278 17.0559 19.7008 15.8227 19.7043L6.51545 19.7043C5.28224 19.7008 4.10059 19.2278 3.22857 18.3887C2.35655 17.5495 1.86503 16.4125 1.86134 15.2258L1.86134 6.26966C1.86503 5.08297 2.35655 3.94589 3.22857 3.10677C4.10059 2.26765 5.28224 1.79467 6.51545 1.79113L15.8227 1.79113ZM15.8227 0L6.51545 0C2.93188 0 0 2.82128 0 6.26966L0 15.2258C0 18.6742 2.93188 21.4954 6.51545 21.4954L15.8227 21.4954C19.4063 21.4954 22.3381 18.6742 22.3381 15.2258L22.3381 6.26966C22.3381 2.82128 19.4063 0 15.8227 0Z" fill="#1C1F35"/>
<path d="M17.2192 6.27006C16.9431 6.27006 16.6732 6.19127 16.4436 6.04365C16.214 5.89602 16.0351 5.6862 15.9294 5.44072C15.8237 5.19523 15.7961 4.9251 15.8499 4.6645C15.9038 4.40389 16.0368 4.16451 16.232 3.97662C16.4273 3.78874 16.676 3.66078 16.9469 3.60894C17.2177 3.55711 17.4984 3.58371 17.7535 3.6854C18.0086 3.78708 18.2267 3.95927 18.3801 4.18021C18.5335 4.40114 18.6154 4.66088 18.6154 4.92659C18.6158 5.10313 18.5799 5.278 18.5099 5.44117C18.4399 5.60433 18.3371 5.75259 18.2073 5.87741C18.0776 6.00224 17.9235 6.10119 17.754 6.16857C17.5844 6.23595 17.4027 6.27044 17.2192 6.27006ZM11.1695 7.16538C11.9059 7.16538 12.6257 7.37551 13.238 7.76918C13.8503 8.16286 14.3275 8.7224 14.6093 9.37706C14.8911 10.0317 14.9648 10.7521 14.8211 11.4471C14.6775 12.1421 14.3229 12.7804 13.8022 13.2815C13.2815 13.7825 12.6181 14.1238 11.8959 14.262C11.1736 14.4002 10.425 14.3293 9.74469 14.0581C9.06437 13.787 8.48289 13.3278 8.07378 12.7386C7.66467 12.1494 7.44631 11.4567 7.44631 10.7481C7.44736 9.79823 7.83997 8.88753 8.53797 8.21586C9.23598 7.54419 10.1824 7.1664 11.1695 7.16538ZM11.1695 5.37426C10.065 5.37426 8.98527 5.68943 8.0669 6.27991C7.14852 6.8704 6.43274 7.70968 6.01006 8.69163C5.58738 9.67357 5.47679 10.7541 5.69227 11.7965C5.90775 12.8389 6.43962 13.7965 7.22064 14.548C8.00165 15.2996 8.99671 15.8114 10.08 16.0187C11.1633 16.2261 12.2862 16.1196 13.3066 15.7129C14.327 15.3062 15.1992 14.6174 15.8129 13.7337C16.4265 12.8499 16.754 11.811 16.754 10.7481C16.754 9.32288 16.1657 7.95602 15.1184 6.94822C14.0711 5.94043 12.6506 5.37426 11.1695 5.37426Z" fill="#1C1F35"/>
</svg>
