<svg width="73" height="73" viewBox="0 0 73 73" fill="none" xmlns="http://www.w3.org/2000/svg">
<circle cx="36.4252" cy="36.4252" r="36.4252" fill="url(#paint0_linear_1_4308)"/>
<path d="M34.2687 25.7498C34.7697 25.7498 35.1992 25.9287 35.5571 26.2866C35.8434 26.6445 35.9865 27.0739 35.9865 27.575C35.9865 28.1476 35.8792 28.7202 35.6644 29.2928L29.974 44.002C29.6162 44.7177 29.2583 45.2904 28.9004 45.7198C28.4709 46.2209 27.7909 46.4714 26.8604 46.4714L23.3173 46.4714C22.7447 46.4714 22.3153 46.2567 22.029 45.8272C21.6711 45.3977 21.5637 44.8251 21.7069 44.1093L24.0689 28.8634C24.1405 28.0044 24.4268 27.2529 24.9278 26.6087C25.4289 26.0361 26.1804 25.7498 27.1825 25.7498L34.2687 25.7498ZM51.4472 25.7498C51.9483 25.7498 52.3777 25.9287 52.7356 26.2866C53.0219 26.6445 53.1651 27.0739 53.1651 27.575C53.1651 28.1476 53.0577 28.7202 52.843 29.2928L47.1526 44.002C46.7947 44.7177 46.401 45.2904 45.9716 45.7198C45.5421 46.2209 44.8979 46.4714 44.039 46.4714H40.4959C39.9233 46.4714 39.4938 46.2567 39.2075 45.8272C38.8496 45.3977 38.7423 44.8251 38.8854 44.1093L41.2475 28.8634C41.319 28.0044 41.6054 27.2529 42.1064 26.6087C42.6074 26.0361 43.3232 25.7498 44.2537 25.7498L51.4472 25.7498Z" fill="#091242"/>
<defs>
<linearGradient id="paint0_linear_1_4308" x1="-2.06535" y1="15.7842" x2="89.5811" y2="22.2925" gradientUnits="userSpaceOnUse">
<stop stop-color="#FFB629"/>
<stop offset="0.507189" stop-color="#FFDA56"/>
<stop offset="1" stop-color="#FFD7A6"/>
</linearGradient>
</defs>
</svg>
