<svg width="54" height="123" viewBox="0 0 54 123" fill="none" xmlns="http://www.w3.org/2000/svg">
<rect x="11" y="27.5" width="6" height="6" stroke="#1C1F35" stroke-linecap="round" stroke-linejoin="round"/>
<rect x="11" y="40.5" width="6" height="6" stroke="#1C1F35" stroke-linecap="round" stroke-linejoin="round"/>
<rect x="24" y="27.5" width="6" height="6" stroke="#1C1F35" stroke-linecap="round" stroke-linejoin="round"/>
<rect x="24" y="40.5" width="6" height="6" stroke="#1C1F35" stroke-linecap="round" stroke-linejoin="round"/>
<rect x="36" y="27.5" width="6" height="6" fill="#FFD550" stroke="#1C1F35" stroke-linecap="round" stroke-linejoin="round"/>
<rect x="36" y="40.5" width="6" height="6" stroke="#1C1F35" stroke-linecap="round" stroke-linejoin="round"/>
<path d="M52 19.5H1V8.5C1 6.84315 2.34315 5.5 4 5.5H49C50.6569 5.5 52 6.84315 52 8.5V19.5Z" fill="#FFD550"/>
<path d="M50 5.16699H3.33333C2.04467 5.16699 1 6.21166 1 7.50033V54.167C1 55.4557 2.04467 56.5003 3.33333 56.5003H50C51.2887 56.5003 52.3333 55.4557 52.3333 54.167V7.50033C52.3333 6.21166 51.2887 5.16699 50 5.16699Z" stroke="#1C1F35" stroke-linecap="round" stroke-linejoin="round"/>
<path d="M40.667 0.5V9.83333" stroke="#1C1F35" stroke-linecap="round" stroke-linejoin="round"/>
<path d="M12.667 0.5V9.83333" stroke="#1C1F35" stroke-linecap="round" stroke-linejoin="round"/>
<path d="M1 19.167H52.3333" stroke="#1C1F35" stroke-linecap="round" stroke-linejoin="round"/>
<path d="M3.72391 93.5C3.43057 93.5 3.19057 93.4067 3.00391 93.22C2.81724 93.0333 2.72391 92.7933 2.72391 92.5V90.1C2.72391 89.8867 2.77724 89.6067 2.88391 89.26C3.01724 88.8867 3.29724 88.5267 3.72391 88.18L9.00391 82.94C10.9506 81.4467 12.5239 80.18 13.7239 79.14C14.9506 78.1 15.8572 77.1533 16.4439 76.3C17.0306 75.4467 17.3239 74.62 17.3239 73.82C17.3239 72.78 17.0306 71.9267 16.4439 71.26C15.8839 70.5667 14.9639 70.22 13.6839 70.22C12.8306 70.22 12.1106 70.4067 11.5239 70.78C10.9639 71.1267 10.5239 71.5933 10.2039 72.18C9.88391 72.7667 9.67057 73.4067 9.56391 74.1C9.48391 74.4467 9.31057 74.6867 9.04391 74.82C8.80391 74.9533 8.55057 75.02 8.28391 75.02H4.04391C3.77724 75.02 3.56391 74.94 3.40391 74.78C3.24391 74.5933 3.16391 74.3933 3.16391 74.18C3.19057 72.9533 3.44391 71.7933 3.92391 70.7C4.43057 69.6067 5.13724 68.6333 6.04391 67.78C6.95057 66.9267 8.04391 66.26 9.32391 65.78C10.6039 65.2733 12.0572 65.02 13.6839 65.02C15.9239 65.02 17.8039 65.3933 19.3239 66.14C20.8439 66.86 21.9906 67.86 22.7639 69.14C23.5372 70.42 23.9239 71.9 23.9239 73.58C23.9239 74.86 23.6572 76.0467 23.1239 77.14C22.6172 78.2333 21.8706 79.2867 20.8839 80.3C19.8972 81.2867 18.7239 82.3133 17.3639 83.38L12.6439 88.1H23.5239C23.8172 88.1 24.0572 88.1933 24.2439 88.38C24.4306 88.5667 24.5239 88.8067 24.5239 89.1V92.5C24.5239 92.7933 24.4306 93.0333 24.2439 93.22C24.0572 93.4067 23.8172 93.5 23.5239 93.5H3.72391ZM39.6755 93.9C37.8088 93.9 36.1555 93.6867 34.7155 93.26C33.3021 92.8067 32.1155 92.1933 31.1555 91.42C30.1955 90.62 29.4755 89.7 28.9955 88.66C28.5155 87.5933 28.2755 86.4333 28.2755 85.18C28.2755 83.66 28.6488 82.34 29.3955 81.22C30.1421 80.1 31.0888 79.2333 32.2355 78.62C31.3021 78.0067 30.5688 77.2333 30.0355 76.3C29.5288 75.34 29.2755 74.2333 29.2755 72.98C29.2755 71.46 29.6621 70.1133 30.4355 68.94C31.2088 67.7667 32.3555 66.8333 33.8755 66.14C35.4221 65.4467 37.3555 65.1 39.6755 65.1C41.9688 65.1 43.8755 65.4467 45.3955 66.14C46.9155 66.8067 48.0621 67.7267 48.8355 68.9C49.6088 70.0733 49.9955 71.42 49.9955 72.94C49.9955 74.1933 49.7421 75.3 49.2355 76.26C48.7288 77.22 48.0088 78.0067 47.0755 78.62C48.3021 79.2067 49.2755 80.0733 49.9955 81.22C50.7155 82.3667 51.0755 83.7 51.0755 85.22C51.0755 86.8733 50.6488 88.3533 49.7955 89.66C48.9421 90.9667 47.6621 92.0067 45.9555 92.78C44.2488 93.5267 42.1555 93.9 39.6755 93.9ZM39.6755 89.3C40.6088 89.3 41.4621 89.14 42.2355 88.82C43.0088 88.4733 43.6088 87.9933 44.0355 87.38C44.4888 86.7667 44.7155 86.0467 44.7155 85.22C44.7155 84.3667 44.4888 83.6467 44.0355 83.06C43.6088 82.4467 43.0088 81.98 42.2355 81.66C41.4621 81.3133 40.6088 81.14 39.6755 81.14C38.7155 81.14 37.8488 81.3133 37.0755 81.66C36.3288 81.98 35.7288 82.4467 35.2755 83.06C34.8221 83.6467 34.5955 84.3667 34.5955 85.22C34.5955 86.0467 34.8221 86.7667 35.2755 87.38C35.7288 87.9933 36.3288 88.4733 37.0755 88.82C37.8488 89.14 38.7155 89.3 39.6755 89.3ZM39.6755 76.78C40.5021 76.7533 41.2488 76.5933 41.9155 76.3C42.5821 76.0067 43.1155 75.6067 43.5155 75.1C43.9155 74.5667 44.1155 73.9533 44.1155 73.26C44.1155 72.54 43.9155 71.9267 43.5155 71.42C43.1421 70.8867 42.6221 70.4733 41.9555 70.18C41.2888 69.8867 40.5288 69.74 39.6755 69.74C38.8221 69.74 38.0488 69.8867 37.3555 70.18C36.6888 70.4733 36.1688 70.8867 35.7955 71.42C35.4221 71.9267 35.2355 72.54 35.2355 73.26C35.2355 73.98 35.4221 74.6067 35.7955 75.14C36.1688 75.6467 36.6888 76.0467 37.3555 76.34C38.0488 76.6333 38.8221 76.78 39.6755 76.78Z" fill="#1C1F35"/>
<path d="M12.6876 116.5C12.645 113.055 12.3783 109.967 11.8876 107.236C11.493 108.217 11.125 109.215 10.7836 110.228C10.453 111.231 9.95163 112.879 9.27963 115.172H8.07963C7.50363 113.156 7.03429 111.604 6.67163 110.516C6.30896 109.417 5.91429 108.34 5.48763 107.284C5.01829 109.972 4.74629 113.044 4.67163 116.5H3.08763C3.18363 112.244 3.62096 108.511 4.39963 105.3H6.17563C6.79429 106.74 7.27963 107.956 7.63163 108.948C7.99429 109.929 8.34096 111.033 8.67163 112.26C9.03429 111.012 9.39696 109.892 9.75963 108.9C10.1223 107.908 10.6076 106.708 11.2156 105.3H12.9916C13.7916 108.564 14.2236 112.297 14.2876 116.5H12.6876ZM23.151 113.94C23.151 114.559 23.1883 115.028 23.263 115.348C23.3483 115.668 23.4923 115.945 23.695 116.18C23.5457 116.297 23.3643 116.399 23.151 116.484C22.9377 116.559 22.7403 116.596 22.559 116.596C22.0683 116.596 21.775 116.159 21.679 115.284C21.359 115.721 20.9483 116.063 20.447 116.308C19.9563 116.543 19.4017 116.66 18.783 116.66C17.983 116.66 17.3377 116.452 16.847 116.036C16.367 115.62 16.127 115.065 16.127 114.372C16.127 112.409 17.9617 111.337 21.631 111.156V110.532C21.631 109.913 21.4763 109.455 21.167 109.156C20.8577 108.857 20.3777 108.708 19.727 108.708C19.3003 108.708 18.9003 108.793 18.527 108.964C18.1537 109.135 17.727 109.433 17.247 109.86C17.1723 109.913 17.103 109.94 17.039 109.94C16.9003 109.94 16.751 109.871 16.591 109.732C16.431 109.583 16.2817 109.38 16.143 109.124C16.591 108.623 17.1457 108.233 17.807 107.956C18.4683 107.679 19.1563 107.54 19.871 107.54C20.895 107.54 21.695 107.807 22.271 108.34C22.8577 108.863 23.151 109.593 23.151 110.532V113.94ZM19.119 115.556C19.6097 115.556 20.0683 115.412 20.495 115.124C20.9217 114.825 21.3003 114.404 21.631 113.86V112.148C18.9857 112.265 17.663 112.975 17.663 114.276C17.663 114.692 17.7857 115.012 18.031 115.236C18.287 115.449 18.6497 115.556 19.119 115.556ZM29.3998 107.588C30.2424 107.588 30.6638 107.903 30.6638 108.532C30.6638 108.788 30.5944 108.996 30.4558 109.156C30.1784 109.017 29.8158 108.948 29.3678 108.948C28.6638 108.948 28.1091 109.209 27.7038 109.732C27.3091 110.244 27.1118 110.953 27.1118 111.86V116.5H25.5918V107.7H27.1118V109.172C27.3464 108.692 27.6664 108.308 28.0718 108.02C28.4878 107.732 28.9304 107.588 29.3998 107.588ZM35.7371 116.66C34.3931 116.66 33.3585 116.265 32.6331 115.476C31.9078 114.676 31.5451 113.535 31.5451 112.052C31.5451 111.135 31.7105 110.335 32.0411 109.652C32.3718 108.969 32.8465 108.447 33.4651 108.084C34.0838 107.721 34.8145 107.54 35.6571 107.54C36.6598 107.54 37.4811 107.796 38.1211 108.308C38.7718 108.809 39.1558 109.487 39.2731 110.34C39.1025 110.436 38.9211 110.516 38.7291 110.58C38.5371 110.633 38.3665 110.66 38.2171 110.66C38.0891 110.66 37.9878 110.623 37.9131 110.548C37.8491 110.473 37.7905 110.335 37.7371 110.132C37.5985 109.641 37.3531 109.273 37.0011 109.028C36.6491 108.772 36.2011 108.644 35.6571 108.644C34.8678 108.644 34.2385 108.953 33.7691 109.572C33.3105 110.18 33.0811 111.007 33.0811 112.052C33.0811 113.151 33.3158 114.004 33.7851 114.612C34.2545 115.22 34.9051 115.524 35.7371 115.524C36.9958 115.524 37.8331 114.873 38.2491 113.572C38.5371 113.572 38.7558 113.652 38.9051 113.812C39.0651 113.961 39.1451 114.175 39.1451 114.452C39.1451 114.836 38.9851 115.199 38.6651 115.54C38.3558 115.881 37.9398 116.153 37.4171 116.356C36.8945 116.559 36.3345 116.66 35.7371 116.66ZM45.7623 107.54C46.6263 107.54 47.3089 107.796 47.8103 108.308C48.3223 108.809 48.5783 109.497 48.5783 110.372V116.5H47.0743V110.548C47.0743 109.94 46.9303 109.481 46.6423 109.172C46.3649 108.863 45.9543 108.708 45.4103 108.708C44.9729 108.708 44.5089 108.809 44.0182 109.012C43.5383 109.204 43.0849 109.476 42.6583 109.828V116.5H41.1543V103.844H42.6583V108.676C43.0956 108.324 43.5863 108.047 44.1302 107.844C44.6743 107.641 45.2183 107.54 45.7623 107.54Z" fill="#666C89"/>
</svg>
