<svg width="54" height="123" viewBox="0 0 54 123" fill="none" xmlns="http://www.w3.org/2000/svg">
<rect x="11" y="27.5" width="6" height="6" stroke="#1C1F35" stroke-linecap="round" stroke-linejoin="round"/>
<rect x="11" y="40.5" width="6" height="6" stroke="#1C1F35" stroke-linecap="round" stroke-linejoin="round"/>
<rect x="24" y="27.5" width="6" height="6" stroke="#1C1F35" stroke-linecap="round" stroke-linejoin="round"/>
<rect x="24" y="40.5" width="6" height="6" stroke="#1C1F35" stroke-linecap="round" stroke-linejoin="round"/>
<rect x="36" y="27.5" width="6" height="6" fill="#FFD550" stroke="#1C1F35" stroke-linecap="round" stroke-linejoin="round"/>
<rect x="36" y="40.5" width="6" height="6" stroke="#1C1F35" stroke-linecap="round" stroke-linejoin="round"/>
<path d="M52 19.5H1V8.5C1 6.84315 2.34315 5.5 4 5.5H49C50.6569 5.5 52 6.84315 52 8.5V19.5Z" fill="#FFD550"/>
<path d="M50 5.16699H3.33333C2.04467 5.16699 1 6.21166 1 7.50033V54.167C1 55.4557 2.04467 56.5003 3.33333 56.5003H50C51.2887 56.5003 52.3333 55.4557 52.3333 54.167V7.50033C52.3333 6.21166 51.2887 5.16699 50 5.16699Z" stroke="#1C1F35" stroke-linecap="round" stroke-linejoin="round"/>
<path d="M40.667 0.5V9.83333" stroke="#1C1F35" stroke-linecap="round" stroke-linejoin="round"/>
<path d="M12.667 0.5V9.83333" stroke="#1C1F35" stroke-linecap="round" stroke-linejoin="round"/>
<path d="M1 19.167H52.3333" stroke="#1C1F35" stroke-linecap="round" stroke-linejoin="round"/>
<path d="M13.4895 93.9C11.5162 93.9 9.82287 93.66 8.40953 93.18C6.9962 92.7 5.8362 92.0867 4.92953 91.34C4.02286 90.5933 3.34286 89.78 2.88953 88.9C2.4362 87.9933 2.1962 87.1267 2.16953 86.3C2.16953 86.06 2.24953 85.86 2.40953 85.7C2.56953 85.54 2.76953 85.46 3.00953 85.46H7.40953C7.70286 85.46 7.94286 85.5267 8.12953 85.66C8.3162 85.7667 8.48953 85.9667 8.64953 86.26C8.86287 86.8733 9.20953 87.3667 9.68953 87.74C10.1695 88.1133 10.7295 88.38 11.3695 88.54C12.0362 88.6733 12.7429 88.74 13.4895 88.74C14.9829 88.74 16.1562 88.3933 17.0095 87.7C17.8629 87.0067 18.2895 86.0333 18.2895 84.78C18.2895 83.5 17.8895 82.58 17.0895 82.02C16.2895 81.46 15.1562 81.18 13.6895 81.18H9.40953C9.14287 81.18 8.9162 81.0867 8.72953 80.9C8.54286 80.7133 8.44953 80.4867 8.44953 80.22V78.26C8.44953 77.94 8.50286 77.6733 8.60953 77.46C8.74286 77.2467 8.8762 77.0867 9.00953 76.98L15.8895 70.66H4.60953C4.3162 70.66 4.0762 70.5667 3.88953 70.38C3.70286 70.1933 3.60953 69.9667 3.60953 69.7V66.5C3.60953 66.2067 3.70286 65.9667 3.88953 65.78C4.0762 65.5933 4.3162 65.5 4.60953 65.5H22.3695C22.6629 65.5 22.9029 65.5933 23.0895 65.78C23.2762 65.9667 23.3695 66.2067 23.3695 66.5V69.38C23.3695 69.6733 23.3162 69.9267 23.2095 70.14C23.1029 70.3267 22.9695 70.4733 22.8095 70.58L16.2895 77.02L16.6895 77.06C18.2629 77.22 19.6629 77.6067 20.8895 78.22C22.1162 78.8333 23.0762 79.7133 23.7695 80.86C24.4895 81.98 24.8495 83.4067 24.8495 85.14C24.8495 86.9533 24.3562 88.5133 23.3695 89.82C22.3829 91.1267 21.0362 92.14 19.3295 92.86C17.6229 93.5533 15.6762 93.9 13.4895 93.9ZM39.8717 93.9C37.9517 93.9 36.2984 93.6333 34.9117 93.1C33.5517 92.54 32.4184 91.78 31.5117 90.82C30.6317 89.8333 29.9651 88.7 29.5117 87.42C29.0851 86.1133 28.8317 84.7267 28.7517 83.26C28.7251 82.54 28.6984 81.74 28.6717 80.86C28.6717 79.9533 28.6717 79.0467 28.6717 78.14C28.6984 77.2333 28.7251 76.4067 28.7517 75.66C28.8051 74.1933 29.0584 72.82 29.5117 71.54C29.9917 70.26 30.6851 69.14 31.5917 68.18C32.4984 67.22 33.6317 66.4733 34.9917 65.94C36.3784 65.38 38.0051 65.1 39.8717 65.1C41.7384 65.1 43.3517 65.38 44.7117 65.94C46.0717 66.4733 47.2051 67.22 48.1117 68.18C49.0184 69.14 49.6984 70.26 50.1517 71.54C50.6317 72.82 50.9117 74.1933 50.9917 75.66C51.0184 76.4067 51.0317 77.2333 51.0317 78.14C51.0584 79.0467 51.0584 79.9533 51.0317 80.86C51.0317 81.74 51.0184 82.54 50.9917 83.26C50.9117 84.7267 50.6451 86.1133 50.1917 87.42C49.7384 88.7 49.0584 89.8333 48.1517 90.82C47.2717 91.78 46.1384 92.54 44.7517 93.1C43.3917 93.6333 41.7651 93.9 39.8717 93.9ZM39.8717 88.7C41.4184 88.7 42.5517 88.1933 43.2717 87.18C43.9917 86.1667 44.3784 84.7933 44.4317 83.06C44.4584 82.2867 44.4717 81.4867 44.4717 80.66C44.4984 79.8333 44.4984 79.0067 44.4717 78.18C44.4717 77.3533 44.4584 76.58 44.4317 75.86C44.3784 74.2067 43.9917 72.86 43.2717 71.82C42.5517 70.78 41.4184 70.2467 39.8717 70.22C38.2984 70.2467 37.1517 70.78 36.4317 71.82C35.7384 72.86 35.3651 74.2067 35.3117 75.86C35.2851 76.58 35.2584 77.3533 35.2317 78.18C35.2317 79.0067 35.2317 79.8333 35.2317 80.66C35.2584 81.4867 35.2851 82.2867 35.3117 83.06C35.3651 84.7933 35.7517 86.1667 36.4717 87.18C37.1917 88.1933 38.3251 88.7 39.8717 88.7Z" fill="#1C1F35"/>
<path d="M12.6876 116.5C12.645 113.055 12.3783 109.967 11.8876 107.236C11.493 108.217 11.125 109.215 10.7836 110.228C10.453 111.231 9.95163 112.879 9.27963 115.172H8.07963C7.50363 113.156 7.03429 111.604 6.67163 110.516C6.30896 109.417 5.91429 108.34 5.48763 107.284C5.01829 109.972 4.74629 113.044 4.67163 116.5H3.08763C3.18363 112.244 3.62096 108.511 4.39963 105.3H6.17563C6.79429 106.74 7.27963 107.956 7.63163 108.948C7.99429 109.929 8.34096 111.033 8.67163 112.26C9.03429 111.012 9.39696 109.892 9.75963 108.9C10.1223 107.908 10.6076 106.708 11.2156 105.3H12.9916C13.7916 108.564 14.2236 112.297 14.2876 116.5H12.6876ZM23.151 113.94C23.151 114.559 23.1883 115.028 23.263 115.348C23.3483 115.668 23.4923 115.945 23.695 116.18C23.5457 116.297 23.3643 116.399 23.151 116.484C22.9377 116.559 22.7403 116.596 22.559 116.596C22.0683 116.596 21.775 116.159 21.679 115.284C21.359 115.721 20.9483 116.063 20.447 116.308C19.9563 116.543 19.4017 116.66 18.783 116.66C17.983 116.66 17.3377 116.452 16.847 116.036C16.367 115.62 16.127 115.065 16.127 114.372C16.127 112.409 17.9617 111.337 21.631 111.156V110.532C21.631 109.913 21.4763 109.455 21.167 109.156C20.8577 108.857 20.3777 108.708 19.727 108.708C19.3003 108.708 18.9003 108.793 18.527 108.964C18.1537 109.135 17.727 109.433 17.247 109.86C17.1723 109.913 17.103 109.94 17.039 109.94C16.9003 109.94 16.751 109.871 16.591 109.732C16.431 109.583 16.2817 109.38 16.143 109.124C16.591 108.623 17.1457 108.233 17.807 107.956C18.4683 107.679 19.1563 107.54 19.871 107.54C20.895 107.54 21.695 107.807 22.271 108.34C22.8577 108.863 23.151 109.593 23.151 110.532V113.94ZM19.119 115.556C19.6097 115.556 20.0683 115.412 20.495 115.124C20.9217 114.825 21.3003 114.404 21.631 113.86V112.148C18.9857 112.265 17.663 112.975 17.663 114.276C17.663 114.692 17.7857 115.012 18.031 115.236C18.287 115.449 18.6497 115.556 19.119 115.556ZM29.3998 107.588C30.2424 107.588 30.6638 107.903 30.6638 108.532C30.6638 108.788 30.5944 108.996 30.4558 109.156C30.1784 109.017 29.8158 108.948 29.3678 108.948C28.6638 108.948 28.1091 109.209 27.7038 109.732C27.3091 110.244 27.1118 110.953 27.1118 111.86V116.5H25.5918V107.7H27.1118V109.172C27.3464 108.692 27.6664 108.308 28.0718 108.02C28.4878 107.732 28.9304 107.588 29.3998 107.588ZM35.7371 116.66C34.3931 116.66 33.3585 116.265 32.6331 115.476C31.9078 114.676 31.5451 113.535 31.5451 112.052C31.5451 111.135 31.7105 110.335 32.0411 109.652C32.3718 108.969 32.8465 108.447 33.4651 108.084C34.0838 107.721 34.8145 107.54 35.6571 107.54C36.6598 107.54 37.4811 107.796 38.1211 108.308C38.7718 108.809 39.1558 109.487 39.2731 110.34C39.1025 110.436 38.9211 110.516 38.7291 110.58C38.5371 110.633 38.3665 110.66 38.2171 110.66C38.0891 110.66 37.9878 110.623 37.9131 110.548C37.8491 110.473 37.7905 110.335 37.7371 110.132C37.5985 109.641 37.3531 109.273 37.0011 109.028C36.6491 108.772 36.2011 108.644 35.6571 108.644C34.8678 108.644 34.2385 108.953 33.7691 109.572C33.3105 110.18 33.0811 111.007 33.0811 112.052C33.0811 113.151 33.3158 114.004 33.7851 114.612C34.2545 115.22 34.9051 115.524 35.7371 115.524C36.9958 115.524 37.8331 114.873 38.2491 113.572C38.5371 113.572 38.7558 113.652 38.9051 113.812C39.0651 113.961 39.1451 114.175 39.1451 114.452C39.1451 114.836 38.9851 115.199 38.6651 115.54C38.3558 115.881 37.9398 116.153 37.4171 116.356C36.8945 116.559 36.3345 116.66 35.7371 116.66ZM45.7623 107.54C46.6263 107.54 47.3089 107.796 47.8103 108.308C48.3223 108.809 48.5783 109.497 48.5783 110.372V116.5H47.0743V110.548C47.0743 109.94 46.9303 109.481 46.6423 109.172C46.3649 108.863 45.9543 108.708 45.4103 108.708C44.9729 108.708 44.5089 108.809 44.0182 109.012C43.5383 109.204 43.0849 109.476 42.6583 109.828V116.5H41.1543V103.844H42.6583V108.676C43.0956 108.324 43.5863 108.047 44.1302 107.844C44.6743 107.641 45.2183 107.54 45.7623 107.54Z" fill="#666C89"/>
</svg>
