<svg width="50" height="50" viewBox="0 0 50 50" fill="none" xmlns="http://www.w3.org/2000/svg">
<path d="M39.1821 1H46.8185C47.3971 1 47.9521 1.22987 48.3613 1.63904C48.7704 2.04821 49.0003 2.60316 49.0003 3.18182V10.8182" stroke="#1C1F35" stroke-width="2" stroke-linecap="round" stroke-linejoin="round"/>
<path d="M39.1821 49.0001H46.8185C47.3971 49.0001 47.9521 48.7702 48.3613 48.361C48.7704 47.9519 49.0003 47.3969 49.0003 46.8182V39.1819" stroke="#1C1F35" stroke-width="2" stroke-linecap="round" stroke-linejoin="round"/>
<path d="M10.8182 49.0001H3.18182C2.60316 49.0001 2.04821 48.7702 1.63904 48.361C1.22987 47.9519 1 47.3969 1 46.8182V39.1819" stroke="#1C1F35" stroke-width="2" stroke-linecap="round" stroke-linejoin="round"/>
<path d="M10.8182 1H3.18182C2.60316 1 2.04821 1.22987 1.63904 1.63904C1.22987 2.04821 1 2.60316 1 3.18182V10.8182" stroke="#1C1F35" stroke-width="2" stroke-linecap="round" stroke-linejoin="round"/>
<path d="M25.0005 29.3637C29.8204 29.3637 33.7277 25.4564 33.7277 20.6365C33.7277 15.8165 29.8204 11.9092 25.0005 11.9092C20.1805 11.9092 16.2732 15.8165 16.2732 20.6365C16.2732 25.4564 20.1805 29.3637 25.0005 29.3637Z" fill="#FFD550" stroke="#1C1F35" stroke-width="2" stroke-linecap="round" stroke-linejoin="round"/>
<path d="M10.5188 38.0909C11.9135 35.46 13.9985 33.2588 16.55 31.7236C19.1014 30.1884 22.0229 29.3772 25.0006 29.3772C27.9783 29.3772 30.8998 30.1884 33.4512 31.7236C36.0027 33.2588 38.0877 35.46 39.4824 38.0909" stroke="#1C1F35" stroke-width="2" stroke-linecap="round" stroke-linejoin="round"/>
<path d="M7.95102 36.7514C9 35 10 33 12.7773 30.9407" stroke="#1C1F35" stroke-width="1.5" stroke-linecap="round" stroke-linejoin="round"/>
<path d="M31.9114 10.8678C33.5 12 35.5 14 36.4004 16.9429" stroke="#1C1F35" stroke-width="1.5" stroke-linecap="round" stroke-linejoin="round"/>
<path d="M19.5699 21.5509C18.7107 19.7559 19.7109 15.7559 23.3923 15.0357" stroke="white" stroke-width="1.5" stroke-linecap="round" stroke-linejoin="round"/>
</svg>
