<svg width="20" height="20" viewBox="0 0 20 20" fill="none" xmlns="http://www.w3.org/2000/svg">
<path d="M14.0759 1.59339C15.173 1.59655 16.2242 2.01731 17 2.7638C17.7757 3.51029 18.213 4.52183 18.2162 5.57752V13.5449C18.213 14.6006 17.7757 15.6122 17 16.3586C16.2242 17.1051 15.173 17.5259 14.0759 17.529H5.79618C4.69911 17.5259 3.6479 17.1051 2.87215 16.3586C2.0964 15.6122 1.65914 14.6006 1.65586 13.5449V5.57752C1.65914 4.52183 2.0964 3.51029 2.87215 2.7638C3.6479 2.01731 4.69911 1.59655 5.79618 1.59339H14.0759ZM14.0759 0H5.79618C2.60821 0 0 2.50982 0 5.57752V13.5449C0 16.6126 2.60821 19.1224 5.79618 19.1224H14.0759C17.2639 19.1224 19.8721 16.6126 19.8721 13.5449V5.57752C19.8721 2.50982 17.2639 0 14.0759 0Z" fill="white"/>
<path d="M15.3177 5.57781C15.072 5.57781 14.8319 5.50771 14.6277 5.37639C14.4234 5.24506 14.2642 5.0584 14.1702 4.84002C14.0762 4.62163 14.0516 4.38133 14.0995 4.14949C14.1475 3.91765 14.2658 3.7047 14.4395 3.53755C14.6131 3.37041 14.8345 3.25658 15.0754 3.21047C15.3163 3.16435 15.566 3.18802 15.793 3.27848C16.0199 3.36893 16.2139 3.52212 16.3504 3.71866C16.4868 3.9152 16.5597 4.14627 16.5597 4.38265C16.56 4.5397 16.5282 4.69526 16.4659 4.84042C16.4036 4.98557 16.3121 5.11746 16.1967 5.22851C16.0813 5.33955 15.9442 5.42757 15.7934 5.48752C15.6425 5.54746 15.4809 5.57814 15.3177 5.57781ZM9.9358 6.37429C10.5909 6.37429 11.2313 6.56122 11.7759 6.91143C12.3206 7.26165 12.7452 7.75942 12.9958 8.34181C13.2465 8.9242 13.3121 9.56504 13.1843 10.1833C13.0565 10.8016 12.7411 11.3695 12.2779 11.8152C11.8146 12.2609 11.2245 12.5645 10.582 12.6875C9.93948 12.8105 9.27351 12.7473 8.66829 12.5061C8.06307 12.2649 7.54578 11.8564 7.18184 11.3322C6.81789 10.8081 6.62364 10.1919 6.62364 9.5615C6.62458 8.71648 6.97384 7.90632 7.59478 7.3088C8.21573 6.71128 9.05765 6.37519 9.9358 6.37429ZM9.9358 4.78089C8.95322 4.78089 7.9927 5.06127 7.17571 5.58657C6.35873 6.11187 5.72196 6.8585 5.34594 7.73204C4.96993 8.60559 4.87154 9.56681 5.06323 10.4942C5.25493 11.4215 5.72809 12.2733 6.42288 12.9419C7.11767 13.6105 8.00289 14.0658 8.96659 14.2503C9.93029 14.4347 10.9292 14.34 11.837 13.9782C12.7448 13.6164 13.5207 13.0036 14.0666 12.2175C14.6125 11.4313 14.9038 10.507 14.9038 9.5615C14.9038 8.29361 14.3804 7.07764 13.4487 6.1811C12.517 5.28456 11.2534 4.78089 9.9358 4.78089Z" fill="white"/>
</svg>
