<svg width="20" height="20" viewBox="0 0 20 20" fill="none" xmlns="http://www.w3.org/2000/svg">
<path d="M17.8653 0H1.65923C0.7737 0 0 0.637165 0 1.51229V17.7544C0 18.6343 0.7737 19.4184 1.65923 19.4184H17.8606C18.7509 19.4184 19.4184 18.6291 19.4184 17.7544V1.51229C19.4236 0.637165 18.7509 0 17.8653 0ZM6.01926 16.1862H3.2374V7.53675H6.01926V16.1862ZM4.72456 6.22168H4.70462C3.81432 6.22168 3.23784 5.55894 3.23784 4.72932C3.23784 3.88454 3.82949 3.23741 4.73973 3.23741C5.64996 3.23741 6.20694 3.87977 6.22688 4.72932C6.22645 5.55894 5.64996 6.22168 4.72456 6.22168ZM16.1862 16.1862H13.4043V11.4568C13.4043 10.3238 12.9995 9.54967 11.993 9.54967C11.2241 9.54967 10.769 10.0698 10.5665 10.5765C10.4907 10.7586 10.4703 11.0065 10.4703 11.2596V16.1862H7.68846V7.53675H10.4703V8.74043C10.8751 8.16395 11.5075 7.33433 12.9791 7.33433C14.8052 7.33433 16.1866 8.53801 16.1866 11.133L16.1862 16.1862Z" fill="white"/>
</svg>
