<svg width="20" height="16" viewBox="0 0 20 16" fill="none" xmlns="http://www.w3.org/2000/svg">
<path d="M19.1694 1.81581C18.4503 2.12802 17.6895 2.33372 16.911 2.42639C17.7292 1.94765 18.3444 1.18709 18.6414 0.287342C17.8679 0.739333 17.023 1.05647 16.143 1.22517C15.7724 0.837082 15.3268 0.528346 14.8331 0.31773C14.3394 0.107113 13.808 -0.000984653 13.2712 6.75813e-06C11.0979 6.75813e-06 9.33908 1.732 9.33908 3.86706C9.33754 4.16404 9.3716 4.46013 9.44052 4.74902C7.88209 4.67601 6.35606 4.27874 4.96007 3.58262C3.56408 2.8865 2.32887 1.90686 1.33347 0.706372C0.984258 1.29466 0.799576 1.96588 0.798724 2.64988C0.798724 3.99077 1.49881 5.17603 2.55592 5.87043C1.92961 5.85557 1.31613 5.68992 0.767574 5.38754V5.43543C0.767574 7.31109 2.12541 8.87148 3.92254 9.22666C3.58459 9.31669 3.23634 9.3623 2.88659 9.36235C2.63842 9.36278 2.39081 9.33872 2.14737 9.29051C2.64697 10.827 4.10105 11.9444 5.8235 11.9763C4.42389 13.0542 2.70553 13.6368 0.938501 13.6325C0.624849 13.632 0.311489 13.6133 0 13.5766C1.7976 14.7236 3.88717 15.3304 6.01999 15.3246C13.2628 15.3246 17.2197 9.43019 17.2197 4.31802C17.2197 4.1504 17.2153 3.98279 17.2073 3.81917C17.9753 3.27326 18.6398 2.59485 19.1694 1.81581Z" fill="white"/>
</svg>
